<?xml version="1.0" encoding="UTF-8"?>
<svg width="135px" height="135px" viewBox="0 0 135 135" version="1.1" xmlns="http://www.w3.org/2000/svg" xmlns:xlink="http://www.w3.org/1999/xlink">
    <!-- Generator: Sketch 49.1 (51147) - http://www.bohemiancoding.com/sketch -->
    <title>Artboard</title>
    <desc>Created with Sketch.</desc>
    <defs></defs>
    <g id="Artboard" stroke="none" stroke-width="1" fill="none" fill-rule="evenodd">
        <g id="american-red-cross-5" transform="translate(6.000000, 47.000000)" fill="#434A53" fill-rule="nonzero">
            <polygon id="Shape" points="13.9340155 13.8854715 0.864860104 13.8854715 0.864860104 26.9546269 13.9340155 26.9546269 13.9340155 40.0224663 27.002513 40.0224663 27.002513 26.9546269 40.0710104 26.9546269 40.0710104 13.8854715 27.002513 13.8854715 27.002513 0.816974093 13.9340155 0.816974093"></polygon>
            <path d="M59.9553938,11.0644922 L57.8404819,11.0644922 L58.9117565,7.59995855 L59.9553938,11.0644922 Z M53.4020622,14.6264145 L56.7409119,14.6264145 L57.1725803,13.2629741 L60.595,13.2629741 L61.0266684,14.6264145 L64.3648601,14.6264145 L60.6923886,4.80398446 L57.1587617,4.80398446 L53.4020622,14.6264145 Z M68.024171,8.46263731 C68.2479016,8.10137824 68.7335285,7.25251813 70.3068808,7.25251813 C70.5575907,7.25251813 70.9596477,7.28015544 71.4057927,7.41965803 C72.3375648,7.71182383 72.6165699,8.22706218 72.8106891,8.6021399 C73.019943,8.12901554 73.6740259,7.25251813 75.3158135,7.25251813 C76.0949223,7.25251813 76.8463938,7.50256995 77.3195181,7.97635233 C77.972285,8.61661658 77.9880777,9.39572539 78.0005803,10.0767876 L78.0005803,14.6264145 L75.1348549,14.6264145 L75.1348549,10.8558964 C75.1348549,10.3965907 75.1216943,9.6181399 74.1339896,9.6181399 C73.0903523,9.6181399 73.0765337,10.466342 73.0765337,10.7861451 L73.0765337,14.6402332 L70.2108083,14.6402332 L70.2108083,10.7446891 C70.2108083,10.6058446 70.1969896,10.466342 70.1700104,10.3274974 C70.0443264,9.77080311 69.5580415,9.6181399 69.2086269,9.6181399 C68.9171192,9.6181399 68.6249534,9.71487047 68.4295181,9.90964767 C68.1649896,10.1741762 68.1649896,10.466342 68.151829,10.7170518 L68.151829,14.6402332 L65.2861036,14.6402332 L65.2861036,7.43347668 L68.0261451,7.43347668 L68.0261451,8.46263731 L68.024171,8.46263731 Z M82.0626062,10.0208549 C82.1316995,9.70105181 82.2850207,8.94958031 83.1483575,8.94958031 C83.5365959,8.94958031 83.9827409,9.17199482 84.1071088,9.68657513 C84.1354041,9.79778238 84.1354041,9.90898964 84.1492228,10.0208549 L82.0626062,10.0208549 Z M84.5532539,11.9548083 C84.2604301,12.5391399 83.899171,12.8872383 83.2450881,12.8872383 C82.7166891,12.8872383 82.4521606,12.6227098 82.3824093,12.5529585 C82.0626062,12.2331554 82.0494456,11.8574197 82.0356269,11.5376166 L87.0708808,11.5376166 C87.0439016,10.4380466 87.0300829,9.24174611 85.9719689,8.19810881 C85.0954715,7.3492487 83.9544456,7.1268342 83.0779482,7.1268342 C80.7412798,7.1268342 79.1133109,8.64359585 79.1133109,10.9947409 C79.1133109,12.9984456 80.4214767,14.9179223 83.0937409,14.9179223 C84.8184404,14.9179223 86.0700155,14.2368601 86.9182176,12.942513 L84.5532539,11.9548083 Z M90.8696943,8.0454456 C91.6488031,7.34990674 92.176544,7.26633679 93.276772,7.26633679 L93.276772,9.68657513 C93.0813368,9.67275648 92.8859016,9.65893782 92.6917824,9.65893782 C91.0078808,9.65893782 90.9795855,10.7578497 90.9657668,11.2309741 L90.9657668,14.6257565 L88.1138601,14.6257565 L88.1138601,7.37754404 L90.8696943,7.37754404 L90.8696943,8.0454456 Z M94.1947254,4.80332642 L97.0604508,4.80332642 L97.0604508,6.70964249 L94.1947254,6.70964249 L94.1947254,4.80332642 Z M94.1947254,7.41965803 L97.0604508,7.41965803 L97.0604508,14.6264145 L94.1947254,14.6264145 L94.1947254,7.41965803 Z M105.728036,12.6918031 C105.547078,13.0813575 105.393756,13.388 105.031181,13.7492591 C104.627808,14.1664508 103.696036,14.9041036 102.026611,14.9041036 C99.647829,14.9041036 98.187658,13.2899534 98.187658,10.9671036 C98.187658,9.77080311 98.6180104,8.79625907 99.2155026,8.18429016 C100.217684,7.14065285 101.650876,7.08472021 102.193093,7.08472021 C102.680036,7.08472021 104.057953,7.09853886 105.156865,8.21192746 C105.434554,8.48961658 105.560238,8.68439378 105.727378,8.96274093 L103.542715,10.2011554 C103.361756,9.56154922 103.014316,9.10224352 102.331938,9.10224352 C101.45544,9.10224352 101.025088,9.96492228 101.025088,11.0493575 C101.025088,11.6198705 101.135637,12.7049637 102.262845,12.7049637 C103.139342,12.7049637 103.418347,11.8699223 103.542715,11.4948446 L105.728036,12.6918031 Z M111.140342,11.2730881 C111.140342,11.5237979 111.140342,11.8159637 111.001497,12.1219482 C110.750788,12.6786425 110.082886,12.943171 109.678855,12.943171 C109.136637,12.943171 108.969497,12.5812539 108.969497,12.3864767 C108.969497,12.3029067 108.997793,11.969285 109.553171,11.7462124 C109.803881,11.6633005 110.054591,11.6073679 110.290824,11.5520933 C110.583648,11.4678653 110.861337,11.3704767 111.140342,11.2730881 Z M109.247187,9.52009326 C109.344575,9.01867358 109.526192,8.85219171 110.180275,8.85219171 C111.001497,8.85219171 111.140342,9.18581347 111.154161,9.67275648 C110.722492,9.79778238 110.416508,9.86753368 109.62358,9.97939896 C108.357528,10.1458808 107.577762,10.2570881 106.923021,10.9256477 C106.409098,11.440228 106.311052,12.0383782 106.311052,12.4700466 C106.311052,13.6939845 107.103979,14.7928964 108.912249,14.7928964 C110.263187,14.7928964 110.929772,14.3204301 111.292347,14.0697202 L111.292347,14.6264145 L114.115959,14.6264145 C113.908021,14.3342487 113.865249,14.2085648 113.865249,13.7354404 L113.865249,9.81225907 C113.865249,8.94958031 113.865249,7.18276684 110.442829,7.18276684 C109.690699,7.18276684 108.662855,7.2518601 107.855451,7.66970984 C106.82629,8.21258549 106.672969,8.97787565 106.561104,9.58918653 L109.247187,9.52009326 Z M117.999658,8.37972539 C118.234575,8.0454456 118.777451,7.23869948 120.364622,7.23869948 C121.504332,7.23869948 122.075503,7.6835285 122.311736,7.90660104 C122.994114,8.57384456 123.03557,9.53456995 123.03557,10.0767876 L123.03557,14.6264145 L120.169845,14.6264145 L120.169845,10.6887565 C120.169845,10.3268394 120.156026,9.60366321 119.196617,9.60366321 C118.179959,9.60366321 118.152979,10.3965907 118.152979,10.7861451 L118.152979,14.6264145 L115.287254,14.6264145 L115.287254,7.41965803 L118.000316,7.41965803 L118.000316,8.37972539 L117.999658,8.37972539 Z M57.8891762,19.2707979 C58.4320518,19.2707979 59.4052798,19.2984352 59.4052798,20.4249845 C59.4052798,21.537715 58.4175751,21.5660104 57.9029948,21.5660104 L56.6093057,21.5660104 L56.6093057,19.2701399 L57.8891762,19.2701399 L57.8891762,19.2707979 Z M53.4928705,27.0480674 L56.6093057,27.0480674 L56.6093057,23.5841917 L57.5272591,23.5841917 L59.4329171,27.0480674 L62.8836321,27.0480674 L60.4903731,23.0834301 C60.9496788,22.9024715 61.3668705,22.7491503 61.7564249,22.3313005 C62.4664404,21.6087824 62.5078964,20.732285 62.5078964,20.3558912 C62.5078964,19.4096425 62.118342,18.0744974 60.8108342,17.5178031 C60.2120259,17.2677513 59.3217098,17.2118187 58.3899378,17.2118187 L53.4928705,17.2118187 L53.4928705,27.0480674 Z M65.7769948,22.4431658 C65.8474041,22.1233627 65.9994093,21.3725492 66.8627461,21.3725492 C67.2509845,21.3725492 67.6971295,21.5936477 67.8214974,22.108886 C67.8497927,22.2207513 67.8497927,22.3313005 67.8636114,22.4431658 L65.7769948,22.4431658 Z M68.2683005,24.3777772 C67.9754767,24.9614508 67.6142176,25.3095492 66.9614508,25.3095492 C66.4317358,25.3095492 66.1672073,25.0450207 66.098114,24.9752694 C65.7783109,24.6554663 65.7638342,24.2797306 65.7513316,23.9599275 L70.7865855,23.9599275 C70.7582902,22.8610155 70.7457876,21.664715 69.6876736,20.6210777 C68.8111762,19.7722176 67.6714663,19.5498031 66.7949689,19.5498031 C64.4569845,19.5498031 62.8296736,21.0659067 62.8296736,23.4163938 C62.8296736,25.4214145 64.1371813,27.3402332 66.8074715,27.3402332 C68.532171,27.3402332 69.7850622,26.659171 70.6332642,25.3648238 L68.2683005,24.3777772 Z M74.6531762,24.8502435 C74.459057,24.6409896 74.2511192,24.2514352 74.2511192,23.4302124 C74.2511192,23.0972487 74.2780984,22.8327202 74.3346891,22.5820104 C74.5840829,21.6772176 75.2664611,21.6772176 75.3638497,21.6772176 C75.6283782,21.6772176 76.1567772,21.8311969 76.364715,22.5129171 C76.4621036,22.8057409 76.4752642,23.1104093 76.4752642,23.4163938 C76.4752642,23.7789689 76.4752642,24.4468705 76.1001865,24.8364249 C75.9060674,25.0318601 75.6415389,25.156228 75.3776684,25.156228 C75.0986632,25.156228 74.8354508,25.0443627 74.6531762,24.8502435 Z M76.407487,20.3420725 C76.1146632,20.0782021 75.6553575,19.632715 74.5709223,19.632715 C72.9975699,19.632715 71.4261917,20.7592642 71.4261917,23.2775492 C71.4261917,25.5444663 72.6086736,27.2283679 74.6676528,27.2283679 C74.9604767,27.2283679 75.3500311,27.2013886 75.7534041,27.0487254 C76.1567772,26.8960622 76.2956218,26.7427409 76.491057,26.5190104 L76.491057,27.0487254 L79.2725544,27.0487254 L79.2725544,17.2262953 L76.407487,17.2262953 L76.407487,20.3420725 Z M93.742658,24.5166218 C93.4919482,24.9897461 93.255715,25.4345751 92.7825907,25.9070415 C91.7804093,26.8954041 90.375513,27.3540518 88.9706166,27.3540518 C85.4646269,27.3540518 83.878772,24.711399 83.878772,22.192456 C83.878772,19.5491451 85.6449275,16.8637202 88.9706166,16.8637202 C90.4590829,16.8637202 91.8777979,17.3927772 92.9069585,18.4502332 C93.3248083,18.8812435 93.5189275,19.2155233 93.7281813,19.6050777 L91.1269845,20.8981088 C90.8762746,20.3144352 90.4031503,19.2707979 89.0949845,19.2707979 C88.4139223,19.2707979 87.9822539,19.590601 87.772342,19.7998549 C87.0360052,20.5092124 87.0360052,21.621943 87.0360052,22.0114974 C87.0360052,23.4729845 87.5782228,24.8502435 89.1088031,24.8502435 C90.5558135,24.8502435 90.9874819,23.5703731 91.0980311,23.2360933 L93.742658,24.5166218 Z M97.192057,20.4677565 C97.9724819,19.7715596 98.5002228,19.6879896 99.5991347,19.6879896 L99.5991347,22.108886 C99.4036995,22.0950674 99.2095803,22.0805907 99.0154611,22.0805907 C97.3315596,22.0805907 97.3032642,23.1795026 97.2894456,23.653943 L97.2894456,27.0480674 L94.4375389,27.0480674 L94.4375389,19.7998549 L97.192057,19.7998549 L97.192057,20.4677565 Z M104.287606,21.5528497 C105.595772,21.5120518 105.622751,22.9590622 105.622751,23.3894145 C105.622751,24.4738497 105.302948,25.3233679 104.301425,25.3233679 C103.13342,25.3233679 102.96628,24.1125907 102.96628,23.4163938 C102.96628,22.6089896 103.202513,21.5811451 104.287606,21.5528497 Z M104.371176,19.5353264 C101.713389,19.5215078 100.114373,21.135 100.114373,23.5012798 C100.114373,25.4345751 101.310674,27.3257565 104.217855,27.3257565 C106.945394,27.3257565 108.516772,25.7267409 108.516772,23.4585078 C108.516772,22.3174819 108.071943,21.2323886 107.389565,20.5783057 C106.833528,20.0505648 105.832663,19.5491451 104.371176,19.5353264 Z M110.590228,24.4185751 C110.854756,24.6831036 111.118627,24.9199948 111.674663,25.156228 C112.189902,25.3641658 112.579456,25.3924611 112.815689,25.3924611 C113.163788,25.3924611 113.567819,25.2667772 113.567819,24.9476321 C113.567819,24.585057 113.13615,24.5159637 112.843984,24.4731917 C112.593275,24.4310777 111.995782,24.3343472 111.341699,24.140228 C110.67314,23.9447927 109.351155,23.5552383 109.351155,22.024658 C109.351155,21.3843938 109.643979,20.8013782 110.076306,20.3835285 C110.924508,19.5767824 112.149104,19.548487 112.620912,19.548487 C113.164446,19.548487 113.706663,19.6182383 114.249539,19.7432642 C115.237902,19.9801554 115.654435,20.2861399 116.059124,20.5921244 L114.512751,21.9970207 C114.027124,21.6910363 113.428316,21.3159585 112.663026,21.3159585 C112.551161,21.3159585 112.051057,21.3159585 112.051057,21.6910363 C112.051057,21.9555648 112.245176,21.9970207 113.205244,22.2332539 C114.485114,22.5260777 114.791098,22.595829 115.139197,22.7754715 C115.863031,23.166342 116.266404,23.8329275 116.266404,24.6541503 C116.266404,26.0728653 115.082606,27.3250984 112.843984,27.3250984 C110.783689,27.3250984 109.601207,26.3801658 108.989896,25.8794041 L110.590228,24.4185751 Z M118.297746,24.4185751 C118.601904,24.7402673 118.972381,24.9919673 119.383497,25.156228 C119.89742,25.3641658 120.286974,25.3924611 120.523207,25.3924611 C120.86999,25.3924611 121.275337,25.2667772 121.275337,24.9476321 C121.275337,24.585057 120.843668,24.5159637 120.551503,24.4731917 C120.300793,24.4310777 119.703301,24.3343472 119.049218,24.140228 C118.380658,23.9447927 117.05999,23.5552383 117.05999,22.024658 C117.05999,21.3843938 117.351497,20.8013782 117.783824,20.3835285 C118.632026,19.5767824 119.856622,19.548487 120.32843,19.548487 C120.870648,19.548487 121.414181,19.6182383 121.957057,19.7432642 C122.94542,19.9801554 123.363269,20.2861399 123.765326,20.5921244 L122.221585,21.9970207 C121.734642,21.6910363 121.13715,21.3159585 120.371202,21.3159585 C120.259337,21.3159585 119.759233,21.3159585 119.759233,21.6910363 C119.759233,21.9555648 119.954668,21.9970207 120.91342,22.2332539 C122.19329,22.5260777 122.499275,22.595829 122.847373,22.7754715 C123.571207,23.166342 123.97458,23.8329275 123.97458,24.6541503 C123.97458,26.0728653 122.792098,27.3250984 120.552161,27.3250984 C118.493181,27.3250984 117.310699,26.3801658 116.699389,25.8794041 L118.297746,24.4185751 Z" id="Shape"></path>
        </g>
    </g>
</svg>