<?xml version="1.0" encoding="UTF-8"?>
<svg width="135px" height="135px" viewBox="0 0 135 135" version="1.1" xmlns="http://www.w3.org/2000/svg" xmlns:xlink="http://www.w3.org/1999/xlink">
    <!-- Generator: Sketch 49.1 (51147) - http://www.bohemiancoding.com/sketch -->
    <title>Artboard</title>
    <desc>Created with Sketch.</desc>
    <defs></defs>
    <g id="Artboard" stroke="none" stroke-width="1" fill="none" fill-rule="evenodd">
        <g id="cvs" transform="translate(16.000000, 43.000000)" fill="#434A53" fill-rule="nonzero">
            <path d="M8.7644618,0.0477440917 C7.84046632,0.0477440917 6.90447091,0.405824779 6.19647438,1.11005013 L1.06049955,6.21866794 C-0.355493511,7.62711864 -0.355493511,9.91883504 1.07249949,11.3272857 L15.5564285,25.7221294 L30.0403575,11.3153497 C31.4563506,9.90689902 31.4563506,7.61518262 30.0403575,6.20673192 L24.9163826,1.11005013 C24.2083861,0.405824779 23.2843906,0.0477440917 22.3483952,0.0477440917 C21.4123998,0.0477440917 20.4884043,0.405824779 19.7804078,1.11005013 L15.5564285,5.29959418 L11.3324492,1.09811411 C10.6244527,0.393888756 9.70045721,0.0477440917 8.7644618,0.0477440917 Z M56.5122278,0.692289329 L64.5281885,0.692289329 L68.6441684,16.4239675 L73.0481468,0.692289329 L80.764109,0.692289329 L72.5321493,25.0417761 L64.7201876,25.0417761 L56.5122278,0.692289329 Z M58.1802196,15.5765099 C57.7602217,21.9742182 53.5002426,25.7221294 46.480277,25.7221294 C38.6683153,25.7221294 33.8923387,20.7806159 33.8923387,12.8789687 C33.8923387,4.91764144 38.6923151,0 46.3122778,0 C53.404243,0 57.5922225,3.58080688 58.0482203,9.88302698 L50.560257,9.88302698 C50.3322581,7.41227023 48.928265,6.11124373 46.4082773,6.11124373 C43.3362924,6.11124373 41.8002999,8.35521604 41.8002999,12.8789687 C41.8002999,17.2952972 43.4682917,19.6108857 46.6362762,19.6108857 C49.0242645,19.6108857 50.5242572,18.1785629 50.752256,15.5765099 L58.1802196,15.5765099 Z M87.0400782,17.4385295 C87.4360763,19.264741 88.4800712,19.9092862 90.6280606,19.9092862 C92.5240513,19.9092862 93.5680462,19.2289329 93.5680462,18.1546909 C93.5680462,16.6268799 92.1640531,16.4955837 89.2480674,15.7436142 C85.852084,14.8722846 83.6560948,14.1203151 82.6480997,13.4041537 C80.752109,12.0673192 79.8401135,10.1814275 79.8401135,7.78228694 C79.8401135,3.06755789 83.5720952,0.0119360229 90.0760633,0.0119360229 C96.3880324,0.0119360229 100.108014,2.76915732 100.540012,7.68679876 L93.1240484,7.68679876 C92.8600497,6.21866794 91.8520546,5.53831463 89.9560639,5.53831463 C88.2880721,5.53831463 87.4720761,6.08737169 87.4720761,7.19742182 C87.4720761,8.49844832 88.7440699,8.72523275 91.0960583,9.34590594 C94.1320435,10.1217474 96.5560316,10.6111244 98.0920241,11.6495584 C100.252013,13.0818811 101.224009,14.8364765 101.224009,17.3430413 C101.224009,22.6426355 97.3960275,25.7340654 90.3040622,25.7340654 C83.7400944,25.7340654 79.8761133,22.6426355 79.3841157,17.4385295 L87.0400782,17.4385295 Z M89.4280665,49.8448317 L89.4280665,47.8634519 L89.4880662,47.8634519 C89.7520649,47.9470041 90.0760633,47.9947481 90.4600615,47.9947481 C91.3960569,47.9947481 91.8040549,47.6724755 92.1280533,46.7653378 L92.584051,45.5001194 L88.3840716,34.6741466 L90.9760589,34.6741466 L93.0280489,40.4631177 C93.3760472,41.4299355 93.7600453,42.7667701 93.7600453,42.7667701 L93.808045,42.7667701 C93.808045,42.7667701 94.1560433,41.4299355 94.5040416,40.4631177 L96.472032,34.6741466 L98.9800197,34.6741466 L94.5160416,46.896634 C93.6760457,49.2599666 92.8480497,50 90.9280592,50 C90.3640619,50 89.932064,49.9522559 89.4280665,49.8448317 Z M77.6201244,40.2243972 C77.6201244,36.953927 79.744114,34.387682 83.0920976,34.387682 C85.8880839,34.387682 87.6400753,35.9751731 88.0240734,38.3504416 L85.6000853,38.3504416 C85.3840863,37.1687754 84.4960907,36.3690618 83.1760971,36.3690618 C81.1481071,36.3690618 80.1041122,37.9565529 80.1041122,40.2243972 C80.1041122,42.4564335 81.1241072,44.0797326 83.1520973,44.0797326 C84.6040901,44.0797326 85.5280856,43.3038911 85.7080847,41.8596324 L88.0840731,41.8596324 C87.892074,44.3303891 86.068083,46.0730485 83.200097,46.0730485 C79.7681138,46.0849845 77.6201244,43.4948675 77.6201244,40.2243972 Z M73.4441448,41.7760802 L73.4441448,40.0334209 C72.9041475,40.3556935 72.0641516,40.5705419 71.2601555,40.7376462 C69.6641634,41.0837909 68.7041681,41.3821915 68.7041681,42.6712819 C68.7041681,43.8768202 69.532164,44.246837 70.564159,44.246837 C72.4961495,44.258773 73.4441448,42.9458105 73.4441448,41.7760802 Z M73.420145,44.3423251 C72.796148,45.2017188 71.8121528,46.0014323 69.9521619,46.0014323 C67.7921725,46.0014323 66.2081803,44.9033182 66.2081803,42.7548341 C66.2081803,40.2363333 68.2241704,39.5440439 70.768158,39.1859632 C72.4601497,38.9233707 73.3841451,38.7801385 73.3841451,37.7894486 C73.3841451,36.8465027 72.6281488,36.2616376 71.2841554,36.2616376 C69.7961627,36.2616376 69.0761662,36.8465027 69.0161665,38.1355932 L66.7001779,38.1355932 C66.7601776,36.1184053 68.1761707,34.4592982 71.2601555,34.4592982 C74.2721408,34.4592982 75.8081333,35.6887085 75.8081333,38.2907615 L75.8081333,43.1367868 C75.8081333,43.9365004 75.9761324,44.282645 76.7561286,44.1274767 L76.8161283,44.1274767 L76.8161283,45.7030317 C76.5761295,45.834328 76.2521311,45.9417522 75.6881338,45.9417522 C74.3201405,45.9417522 73.612144,45.4881833 73.420145,44.3661972 L73.420145,44.3423251 Z M49.0482644,34.6741466 L51.4242527,34.6741466 L51.4242527,36.2019575 L51.4842525,36.2019575 C52.1082494,35.1635235 53.2362439,34.399618 54.7242366,34.399618 C56.1042298,34.399618 57.2082244,35.1515875 57.7362218,36.3571258 L57.7842216,36.3571258 C58.516218,35.1277154 59.7522119,34.399618 61.1562051,34.399618 C63.3401944,34.399618 64.7081876,35.8200048 64.7081876,38.1833373 L64.7081876,45.7627119 L62.2361998,45.7627119 L62.2361998,38.5056099 C62.2361998,37.1926474 61.4802035,36.4884221 60.4002088,36.4884221 C59.0802152,36.4884221 58.0842201,37.5626641 58.0842201,39.1382191 L58.0842201,45.7627119 L55.6362321,45.7627119 L55.6362321,38.5056099 C55.6362321,37.1926474 54.9402355,36.4884221 53.8362409,36.4884221 C52.5642472,36.4884221 51.4842525,37.5626641 51.4842525,39.1382191 L51.4842525,45.7627119 L49.0362644,45.7627119 L49.0362644,34.6741466 L49.0482644,34.6741466 Z M44.1282885,36.5003581 L44.1882882,36.5003581 C44.8602849,35.3186918 45.7722804,34.5905944 47.1522737,34.5905944 C47.4762721,34.5905944 47.6682712,34.6144665 47.8482703,34.6741466 L47.8482703,36.8942468 L47.7882706,36.8942468 C47.6322713,36.8465027 47.4402723,36.8345667 47.2002734,36.8345667 C45.5082817,36.8345667 44.1882882,37.9804249 44.1882882,40.081165 L44.1882882,45.7627119 L41.7403002,45.7627119 L41.7403002,34.6741466 L44.1162886,34.6741466 L44.1162886,36.5003581 L44.1282885,36.5003581 Z M37.0003234,41.7760802 L37.0003234,40.0334209 C36.4603261,40.3556935 35.6203302,40.5705419 34.8163341,40.7376462 C33.220342,41.0837909 32.2603467,41.3821915 32.2603467,42.6712819 C32.2603467,43.8768202 33.0883426,44.246837 34.1203375,44.246837 C36.0403281,44.258773 37.0003234,42.9458105 37.0003234,41.7760802 Z M36.9763235,44.3423251 C36.3523266,45.2017188 35.3803314,46.0014323 33.5203405,46.0014323 C31.3603511,46.0014323 29.7763588,44.9033182 29.7763588,42.7548341 C29.7763588,40.2363333 31.7923489,39.5440439 34.3363365,39.1859632 C36.0283282,38.9233707 36.9523237,38.7801385 36.9523237,37.7894486 C36.9523237,36.8465027 36.1963274,36.2616376 34.852334,36.2616376 C33.3643412,36.2616376 32.6443448,36.8465027 32.5843451,38.1355932 L30.2683564,38.1355932 C30.3283561,36.1184053 31.7443492,34.4592982 34.8283341,34.4592982 C37.8403193,34.4592982 39.3763118,35.6887085 39.3763118,38.2907615 L39.3763118,43.1367868 C39.3763118,43.9365004 39.544311,44.282645 40.3243071,44.1274767 L40.3843068,44.1274767 L40.3843068,45.7030317 C40.144308,45.834328 39.8203096,45.9417522 39.2563124,45.9417522 C37.8883191,45.9417522 37.1803225,45.4881833 36.9883235,44.3661972 L36.9763235,44.3661972 L36.9763235,44.3423251 Z M21.0524016,36.1422774 L21.1124013,36.1422774 C21.9163973,35.0202912 22.9123925,34.399618 24.4603849,34.399618 C26.7763735,34.399618 28.2523663,35.951301 28.2523663,38.3146336 L28.2523663,45.7627119 L25.8043783,45.7627119 L25.8043783,38.6130341 C25.8043783,37.3239437 25.0003822,36.5003581 23.6443889,36.5003581 C22.1563962,36.5003581 21.0524016,37.6223442 21.0524016,39.2575794 L21.0524016,45.7627119 L18.6044136,45.7627119 L18.6044136,30.3771783 L21.0524016,30.3771783 L21.0524016,36.1422774 Z M14.5004337,40.2960134 C14.5004337,38.0639771 13.6364379,36.4048699 11.6924474,36.4048699 C9.61645762,36.4048699 8.70446209,38.1475292 8.70446209,40.2960134 C8.70446209,42.4683695 9.65245745,44.0439246 11.7524472,44.0439246 C13.5044386,44.0319885 14.5004337,42.5757937 14.5004337,40.2960134 Z M6.34047368,34.6741466 L8.71646203,34.6741466 L8.71646203,36.1422774 L8.77646174,36.1422774 C9.53245803,35.1038434 10.6124527,34.399618 12.1724451,34.399618 C15.0764309,34.399618 16.9724216,36.7032705 16.9724216,40.2482693 C16.9724216,43.8171401 15.0644309,46.0849845 12.1484452,46.0849845 C10.6124527,46.0849845 9.5804578,45.5239914 8.81246156,44.4855574 L8.7644618,44.4855574 L8.7644618,49.8448317 L6.31647379,49.8448317 L6.31647379,34.6741466 L6.34047368,34.6741466 Z M99.6280165,33.0389114 C99.6280165,32.0840296 100.408013,31.3917403 101.320008,31.3917403 C102.232004,31.3917403 103,32.0959656 103,33.0389114 C103,33.9937933 102.220004,34.6980186 101.320008,34.6980186 C100.408013,34.6980186 99.6280165,34.0057293 99.6280165,33.0389114 Z M101.320008,34.4234901 C102.076005,34.4234901 102.664002,33.838625 102.664002,33.0389114 C102.664002,32.2511339 102.064005,31.6662688 101.320008,31.6662688 C100.564012,31.6662688 99.9640149,32.2630699 99.9640149,33.0389114 C99.9640149,33.838625 100.552012,34.4234901 101.320008,34.4234901 Z M100.97201,34.0057293 L100.684011,34.0057293 L100.684011,32.0959656 L101.416008,32.0959656 C101.872006,32.0959656 102.100004,32.2630699 102.100004,32.6450227 C102.100004,32.9911673 101.884005,33.1343996 101.608007,33.1702077 L102.160004,34.0057293 L101.836006,34.0057293 L101.332008,33.1821437 L100.99601,33.1821437 L100.99601,34.0057293 L100.97201,34.0057293 Z M101.320008,32.9314872 C101.572007,32.9314872 101.788006,32.9195512 101.788006,32.6211506 C101.788006,32.3824302 101.572007,32.3466221 101.368008,32.3466221 L100.97201,32.3466221 L100.97201,32.9434233 L101.320008,32.9434233 L101.320008,32.9314872 Z" id="Shape"></path>
        </g>
    </g>
</svg>