<?xml version="1.0" encoding="UTF-8"?>
<svg width="135px" height="135px" viewBox="0 0 135 135" version="1.1" xmlns="http://www.w3.org/2000/svg" xmlns:xlink="http://www.w3.org/1999/xlink">
    <!-- Generator: Sketch 49.1 (51147) - http://www.bohemiancoding.com/sketch -->
    <title>Artboard</title>
    <desc>Created with Sketch.</desc>
    <defs></defs>
    <g id="Artboard" stroke="none" stroke-width="1" fill="none" fill-rule="evenodd">
        <g id="gnc" transform="translate(20.000000, 59.000000)" fill="#434A53" fill-rule="nonzero">
            <polyline id="Shape" points="42.177433 17 42.177433 4.57985702 54.4456116 17 63 17 63 0 55.9366865 0 55.9366865 12.8616339 42.9797033 0 35 0 35 17 42.177433 17"></polyline>
            <path d="M94.9515031,16.9833258 L94.9537815,13.7803563 L77.2971711,13.7844866 C74.5504245,13.7367588 74.8414059,12.1632682 74.8414059,10.9899577 L74.8226906,6.65054441 C74.8226906,5.48289391 74.5339877,3.54517232 77.2761775,3.10154774 L95,3.10154774 L95,0 L73.4167691,0 C68.6255044,0 66,4.13886439 66,8.72181229 C66,13.15867 67.8249802,17 73.1928371,17 L94.9515031,16.9833258" id="Shape"></path>
            <path d="M8.03051133,17.9848027 C2.0391138,17.9848027 0,13.9188055 0,9.22539993 C0,4.37970139 2.92867182,0 8.28860083,0 L31,0 L31,3.28533594 L11.6197523,3.28533594 C8.56132017,3.7558123 8.88110945,5.8032883 8.88110945,7.03906861 L8.91084619,11.6305723 C8.91084619,12.8652328 8.62476916,15.091717 11.6536236,14.9138287 L22.6198036,14.9367046 C23.5104748,14.5409349 24.274725,13.449449 24.274725,12.5910416 L24.274725,10.867668 L15.9867603,10.867668 L15.9867603,7.6618379 L30.9115849,7.6618379 L30.9115849,18 L8.03051133,17.9848027" id="Shape"></path>
        </g>
    </g>
</svg>