<?xml version="1.0" encoding="UTF-8"?>
<svg width="135px" height="135px" viewBox="0 0 135 135" version="1.1" xmlns="http://www.w3.org/2000/svg" xmlns:xlink="http://www.w3.org/1999/xlink">
    <!-- Generator: Sketch 49.1 (51147) - http://www.bohemiancoding.com/sketch -->
    <title>Artboard</title>
    <desc>Created with Sketch.</desc>
    <defs></defs>
    <g id="Artboard" stroke="none" stroke-width="1" fill="none" fill-rule="evenodd">
        <g id="indiana-university" transform="translate(40.000000, 33.000000)" fill="#434A53" fill-rule="nonzero">
            <polygon id="Shape" points="17.9799852 1.44071257e-15 17.9799852 5.19071408 22.0366938 5.19071408 22.0366938 43.3100206 14.3106004 43.3100206 14.3106004 14.3961211 17.9392142 14.3961211 17.9392142 9.18513077 0 9.18513077 0 14.3961211 4.05670867 14.3961211 4.05670867 47.8924478 10.6412157 54.5836027 22.0366938 54.5836027 22.0366938 62.3088451 17.9799852 62.3088451 17.9799852 69 37.0200148 69 37.0200148 62.3088451 32.9633062 62.3088451 32.9633062 54.5836027 44.3587843 54.5836027 50.9432913 47.8924478 50.9432913 14.3961211 55 14.3961211 55 9.18513077 37.0607858 9.18513077 37.0607858 14.3961211 40.6893996 14.3961211 40.6893996 43.3100206 32.9633062 43.3100206 32.9633062 5.19071408 37.0200148 5.19071408 37.0200148 0"></polygon>
        </g>
    </g>
</svg>