<?xml version="1.0" encoding="UTF-8"?>
<svg width="135px" height="135px" viewBox="0 0 135 135" version="1.1" xmlns="http://www.w3.org/2000/svg" xmlns:xlink="http://www.w3.org/1999/xlink">
    <!-- Generator: Sketch 49.1 (51147) - http://www.bohemiancoding.com/sketch -->
    <title>Artboard</title>
    <desc>Created with Sketch.</desc>
    <defs></defs>
    <g id="Artboard" stroke="none" stroke-width="1" fill="none" fill-rule="evenodd">
        <g id="keybank" transform="translate(4.000000, 56.000000)" fill="#434A53" fill-rule="nonzero">
            <path d="M97.942017,11.4985214 C97.5173263,11.4985214 97.0893687,11.3818786 96.7528829,11.1272357 L96.1142134,11.7465929 C96.3445264,12.0735214 96.5013353,12.4201643 96.5013353,12.8210214 C96.5013353,13.89545 95.6323527,14.7710929 94.5624587,14.7710929 C94.0462961,14.7710929 93.5579017,14.5673786 93.1903809,14.1993786 C92.8261269,13.8313786 92.6235821,13.3418071 92.6235821,12.8210214 C92.6235821,12.4793071 92.7166874,12.0833786 92.9747687,11.7465929 L92.3409994,11.1272357 C91.9473437,11.3638071 91.5765561,11.4985214 91.2139355,11.4985214 C90.694506,11.4985214 90.2077451,11.3260214 89.8402243,10.9580214 C89.4759703,10.5900214 89.2734255,10.0725214 89.2734255,9.55337857 C89.2734255,9.03259286 89.4759703,8.54302143 89.8402243,8.17666429 C90.2077451,7.80866429 90.694506,7.60659286 91.2139355,7.60659286 C91.6565939,7.60659286 92.0682173,7.81523571 92.3409994,8.01895 L92.9747687,7.38809286 C92.7754907,7.11537857 92.6235821,6.66030714 92.6235821,6.21509286 C92.6235821,5.69595 92.8261269,5.20802143 93.1903809,4.84002143 C93.5579017,4.47202143 94.0462961,4.27159286 94.5624587,4.27159286 C95.0802547,4.27159286 95.5817165,4.47202143 95.9476039,4.84002143 C96.3134913,5.20802143 96.5013353,5.69595 96.5013353,6.21509286 C96.5013353,6.61266429 96.3788284,6.97737857 96.1142134,7.38809286 L96.7528829,8.01895 C97.1269374,7.69530714 97.5352939,7.60659286 97.942017,7.60659286 C98.459813,7.60659286 98.946574,7.80866429 99.3140948,8.17666429 C99.6783488,8.54302143 99.8808936,9.03259286 99.8808936,9.55337857 C99.8808936,10.6261643 99.011911,11.4985214 97.942017,11.4985214 M123.867754,7.16630714 L103.637773,7.16630714 C103.35029,6.58473571 102.850462,5.98509286 102.368601,5.58095 C101.509419,4.86795 100.486895,4.60509286 99.518273,4.78909286 L99.341863,4.82687857 L99.3614642,4.63795 C99.4970385,3.58652143 99.1491188,2.60080714 98.394476,1.73666429 C97.4617898,0.67045 95.9884396,0.000164285714 94.5624587,0.000164285714 C93.1593458,0.000164285714 91.6859956,0.660592857 90.7337083,1.73666429 C90.0068337,2.55809286 89.670348,3.68345 89.7830544,4.63795 L89.8059223,4.82687857 L89.624612,4.78909286 C88.7049932,4.57880714 87.5779293,4.88109286 86.7040464,5.58095 C85.5149123,6.53380714 84.8893102,8.00745 84.8893102,9.49095 C84.8893102,10.9695214 85.5230795,12.44645 86.7105801,13.3976643 C87.584463,14.0975214 88.7098935,14.3998071 89.6295123,14.1895214 L89.8108226,14.1517357 L89.7895881,14.3406643 C89.6752482,15.2968071 90.0133674,16.4205214 90.7386085,17.2403071 C91.6925293,18.3180214 93.1675129,18.97845 94.567359,18.97845 C95.9966067,18.97845 97.46669,18.3081643 98.4010097,17.2403071 C99.1556525,16.3778071 99.5035722,15.3937357 99.3679979,14.3406643 L99.3451299,14.1517357 L99.5280736,14.1895214 C100.491795,14.3718786 101.517586,14.1123071 102.375135,13.3976643 C103.017071,12.8637357 103.453196,12.0505214 103.771714,11.2668786 L114.1015,11.2668786 C114.720568,11.2668786 115.218763,11.7038786 115.218763,12.3281643 C115.218763,12.9491643 114.720568,13.4338071 114.1015,13.4338071 L113.16228,13.4338071 L113.16228,18.9866643 L117.27198,18.9866643 L117.27198,14.5361643 C117.27198,13.9118786 117.770175,13.4338071 118.38761,13.4338071 C119.008312,13.4338071 119.593078,13.9118786 119.593078,14.5361643 L119.593078,18.9866643 L123.660309,18.9866643 L123.660309,13.4338071 L122.753757,13.4255929 C122.134689,13.4255929 121.633227,12.9540929 121.633227,12.3330929 C121.633227,11.7071643 122.134689,11.2668786 122.753757,11.2668786 L123.867754,11.2668786 C124.993184,11.2668786 125.906269,10.3616643 125.906269,9.22809286 C125.906269,8.09945 124.993184,7.16630714 123.867754,7.16630714" id="Fill-1"></path>
            <polygon id="Fill-3" points="0 4.73389286 3.67030812 4.73389286 3.67030812 10.17175 8.30597098 4.73389286 12.8648628 4.73389286 7.65586745 10.30975 13.5149663 18.9035357 8.95770793 18.9035357 5.16979315 12.9498214 3.67030812 14.5368214 3.67030812 18.9035357 0 18.9035357"></polygon>
            <path d="M19.6705321,12.6917286 C19.6117287,11.5400857 18.8031829,10.5888714 17.6777524,10.5888714 C16.4935186,10.5888714 15.7045738,11.4415143 15.5069293,12.6917286 L19.6705321,12.6917286 Z M15.5069293,14.5760857 C15.5657326,15.9856571 16.3759119,16.9188 17.7953591,16.9188 C18.6055383,16.9188 19.3944831,16.5409429 19.7097343,15.7868714 L22.8475455,15.7868714 C22.2350108,18.1690143 20.04622,19.2007286 17.7561568,19.2007286 C14.4223345,19.2007286 12.1535058,17.1767286 12.1535058,13.7234429 C12.1535058,10.5675143 14.6591812,8.3053 17.6777524,8.3053 C21.3480605,8.3053 23.1823979,11.0850143 23.025589,14.5760857 L15.5069293,14.5760857 Z" id="Fill-5"></path>
            <path d="M29.3397603,19.8158143 C28.5312145,22.0780286 27.3273796,22.3556714 25.0585509,22.3556714 L23.479028,22.3556714 L23.479028,19.6170286 L24.6436607,19.6170286 C25.4130043,19.6170286 25.9847034,19.1800286 25.9847034,18.4670286 C25.9847034,17.9101 25.3345999,16.3231 25.1369554,15.7678143 L22.4924387,8.60331429 L26.0451402,8.60331429 L27.9774831,15.3111 L28.0183187,15.3111 L29.9506616,8.60331429 L33.384123,8.60331429 L29.3397603,19.8158143 Z" id="Fill-7"></path>
            <path d="M37.6176364,15.9459 L40.5578031,15.9459 C41.7224358,15.9459 42.5309817,15.5302571 42.5309817,14.3589 C42.5309817,13.1086857 41.6619991,12.6914 40.5578031,12.6914 L37.6176364,12.6914 L37.6176364,15.9459 Z M37.6176364,10.3109 L40.4597976,10.3109 C41.0903,10.3109 41.9576492,9.97247143 41.9576492,8.96047143 C41.9576492,7.92875714 41.2291412,7.59197143 40.4597976,7.59197143 L37.6176364,7.59197143 L37.6176364,10.3109 Z M33.9473283,4.7334 L40.538202,4.7334 C42.9638395,4.69397143 45.6279573,5.32975714 45.6279573,8.28525714 C45.6279573,9.55682857 44.8782148,10.5885429 43.7740188,11.1438286 C45.2735038,11.5808286 46.2012898,12.8901857 46.2012898,14.4969 C46.2012898,17.8713286 43.7348166,18.9030429 40.7162454,18.9030429 L33.9473283,18.9030429 L33.9473283,4.7334 Z" id="Fill-9"></path>
            <path d="M51.7632685,17.1169286 C53.3607591,17.1169286 53.8932559,16.2035 53.8148515,14.0809286 C53.341158,14.3782857 52.4738088,14.4374286 51.7436674,14.6362143 C50.9939249,14.8152857 50.361789,15.1323571 50.361789,15.9455714 C50.361789,16.7801429 51.013526,17.1169286 51.7632685,17.1169286 Z M47.4232557,11.7792857 C47.4820591,10.4288571 48.1125615,9.5565 49.0207463,9.02092857 C49.9289312,8.50507143 51.1115315,8.30628571 52.2761642,8.30628571 C54.7034352,8.30628571 57.0506683,8.84185714 57.0506683,11.7595714 L57.0506683,16.2642857 C57.0506683,17.1366429 57.0506683,18.0895 57.4459574,18.9027143 L54.0712994,18.9027143 C53.9536927,18.5856429 53.9144905,18.2685714 53.8736548,17.9301429 C53.0063056,18.8435714 51.7240663,19.2017143 50.5006302,19.2017143 C48.5470528,19.2017143 47.0083655,18.2077857 47.0083655,16.0852143 C47.0083655,12.7305 50.6394714,12.9900714 52.9671034,12.5136429 C53.5388025,12.3937143 53.8556871,12.1949286 53.8556871,11.5607857 C53.8556871,10.787 52.9279012,10.4896429 52.236962,10.4896429 C51.3091761,10.4896429 50.7178759,10.9052857 50.5594336,11.7792857 L47.4232557,11.7792857 Z" id="Fill-11"></path>
            <path d="M58.6994485,8.60347857 L61.9548664,8.60347857 L61.9548664,10.01305 L61.9940686,10.01305 C62.6066034,8.95997857 63.9868483,8.30612143 65.2102843,8.30612143 C68.6241446,8.30612143 68.9001936,10.80655 68.9001936,12.2949786 L68.9001936,18.90255 L65.5467701,18.90255 L65.5467701,13.9214071 C65.5467701,12.5134786 65.703579,11.0841929 63.8692416,11.0841929 C62.6066034,11.0841929 62.0545054,12.1553357 62.0545054,13.2872643 L62.0545054,18.90255 L58.6994485,18.90255 L58.6994485,8.60347857 Z" id="Fill-13"></path>
            <polygon id="Fill-15" points="70.5468503 4.73389286 73.9002737 4.73389286 73.9002737 12.0363929 76.9596806 8.60282143 80.8456009 8.60282143 77.0968883 12.4931071 81.3192944 18.9035357 77.2749318 18.9035357 74.7692564 14.7553214 73.9002737 15.6079643 73.9002737 18.9035357 70.5468503 18.9035357"></polygon>
            <path d="M125.995454,17.66975 L125.995454,17.1736071 L126.317239,17.1736071 C126.488749,17.1736071 126.655358,17.2196071 126.655358,17.4200357 C126.655358,17.6631786 126.443013,17.66975 126.225767,17.66975 L125.995454,17.66975 Z M125.995454,17.8208929 L126.291104,17.8208929 L126.691294,18.4583214 L126.898739,18.4583214 L126.472415,17.8208929 C126.665159,17.7863929 126.831768,17.6730357 126.831768,17.4200357 C126.831768,17.1621071 126.688027,17.0224643 126.367876,17.0224643 L125.819044,17.0224643 L125.819044,18.4583214 L125.995454,18.4583214 L125.995454,17.8208929 Z M126.266603,16.4983929 C125.56913,16.4983929 125.031733,17.0421786 125.031733,17.7403929 C125.031733,18.4386071 125.56913,18.9823929 126.266603,18.9823929 C126.964076,18.9823929 127.501473,18.4386071 127.501473,17.7403929 C127.501473,17.0421786 126.964076,16.4983929 126.266603,16.4983929 Z M126.266603,16.6758214 C126.864437,16.6758214 127.310362,17.1456786 127.310362,17.7403929 C127.310362,18.3351071 126.864437,18.8066071 126.266603,18.8066071 C125.668769,18.8066071 125.224477,18.3351071 125.224477,17.7403929 C125.224477,17.1456786 125.668769,16.6758214 126.266603,16.6758214 Z" id="Fill-17"></path>
        </g>
    </g>
</svg>