<?xml version="1.0" encoding="UTF-8"?>
<svg width="135px" height="135px" viewBox="0 0 135 135" version="1.1" xmlns="http://www.w3.org/2000/svg" xmlns:xlink="http://www.w3.org/1999/xlink">
    <!-- Generator: Sketch 49.1 (51147) - http://www.bohemiancoding.com/sketch -->
    <title>Artboard</title>
    <desc>Created with Sketch.</desc>
    <defs></defs>
    <g id="Artboard" stroke="none" stroke-width="1" fill="none" fill-rule="evenodd">
        <g id="papa-johns" transform="translate(17.000000, 47.000000)" fill-rule="nonzero">
            <path d="M100.025571,41.0198709 C100.025571,40.4719021 100.462011,40.0339881 101.012785,40.0339881 C101.561238,40.0339881 102,40.4719021 102,41.0198709 C102,41.5609252 101.561238,41.9999916 101.012785,41.9999916 C100.750628,42.0010694 100.498895,41.8981531 100.313521,41.7141106 C100.128146,41.5300682 100.024485,41.2801439 100.025571,41.0198709 Z M101.765529,41.0198709 C101.765529,40.5784996 101.437038,40.266774 101.012785,40.266774 C100.580988,40.266774 100.260041,40.5784996 100.260041,41.0198709 C100.260041,41.4554801 100.580988,41.7672057 101.012785,41.7672057 C101.436458,41.7672057 101.765529,41.4554801 101.765529,41.0198709 Z M101.48637,41.51771 L101.236809,41.51771 L101.006982,41.0867104 L100.847379,41.0867104 L100.847379,41.51771 L100.618132,41.51771 L100.618132,40.4978312 L101.116672,40.4978312 C101.353464,40.4978312 101.515969,40.5393178 101.515969,40.8095569 C101.515969,40.997399 101.418466,41.0740339 101.23739,41.0861342 L101.48637,41.51771 Z M101.122476,40.9334405 C101.236809,40.9334405 101.301811,40.9086637 101.301811,40.7790181 C101.301811,40.6753017 101.168906,40.6753017 101.069662,40.6753017 L100.847379,40.6753017 L100.847379,40.9328643 L101.122476,40.9328643 L101.122476,40.9334405 Z M97.8004199,17.4013229 C90.6362938,13.5257837 74.1026236,9.58398117 67.1085468,9.06309395 L61.8509465,8.66493789 C56.230613,8.2362431 53.1337419,8 50.7634979,8 C48.3926736,8 45.2969633,8.2362431 39.6760494,8.66493789 L34.418449,9.06251774 C27.4243723,9.58340497 10.8918628,13.5252075 3.72657597,17.4007467 C0.366215455,19.2186662 0,20.503022 0,24.7847841 L0,35.7020963 C0,36.5888722 0.11433351,37.8807187 1.10096786,38.859687 C2.23791885,39.9884681 3.71090589,39.9884681 5.4160422,39.9873157 L96.1109537,39.9873157 C97.81609,39.9884681 99.2884967,39.9884681 100.425448,38.859687 C101.412662,37.8807187 101.526996,36.5888722 101.526996,35.7020963 L101.526996,24.7847841 C101.527576,20.503022 101.161361,19.2186662 97.8004199,17.4013229 Z" id="Shape" fill="#434A53"></path>
            <path d="M101,35.7992444 C101,36.4943106 100.918752,37.4971337 100.221426,38.1910386 C99.405443,39.0010782 98.25804,39.0010782 96.6710817,38.9999168 L5.32833378,38.9999168 C3.74137548,39.0010782 2.59397248,39.0010782 1.77915853,38.1910386 C1.08066307,37.4971337 1,36.4943106 1,35.7992444 L1,24.7972231 C1,20.6279873 1.38461089,19.8429167 4.16631791,18.3378109 C11.2652529,14.4960749 27.6737588,10.5852387 34.6224734,10.0678586 L39.9193486,9.66719388 C45.5523199,9.2369148 48.6549257,9 50.9994155,9 C53.3444898,9 56.446511,9.2369148 62.0794824,9.66719388 L67.3763575,10.0678586 C74.3256567,10.5852387 90.7353316,14.4960749 97.8336821,18.3378109 C100.614805,19.8429167 100.999415,20.6274066 100.999415,24.7972231 L100.999415,35.7992444 L101,35.7992444 Z" id="Shape" fill="#FFFFFF"></path>
            <path d="M7.92280072,36.2891837 L4,36.2891837 L4,32.8671958 C4,32.8671958 4.42027929,32.6533586 4.42027929,31.7980097 L4.42027929,24.740789 C4.42027929,24.1519962 4,23.8131738 4,23.8131738 L4,21.2471271 C5.29140526,20.7087113 6.60097508,20.2165632 7.92629334,19.771591 C9.28492472,19.5636773 10.4409838,19.7792916 11.1459121,20.5345338 C11.5848187,21.0042649 11.798451,21.82585 11.776331,22.9584172 L11.776331,27.6278877 C11.776331,29.3747186 10.82168,30.8253761 9.32450782,30.9438455 L7.50310353,30.9438455 L7.50310353,31.7986021 C7.50310353,32.6533586 7.92338282,32.8677882 7.92338282,32.8677882 L7.92338282,36.2891837 L7.92280072,36.2891837 Z M7.50252143,22.7084469 L7.50252143,28.7326146 L7.92280072,28.7326146 C8.55321965,28.7326146 8.72843304,27.8061841 8.72843304,27.4134581 L8.72843304,23.9914702 C8.72843304,22.7801208 8.09801411,22.7084469 7.92280072,22.7084469 L7.50252143,22.7084469 Z M57.1979277,17.6024168 C57.1979277,12.8494254 60.9408582,12 62.9019675,12 C64.864241,12 68.5070496,13.1349366 68.5070496,17.6024168 L68.5070496,30.8739486 C68.5070496,35.9272598 65.1908015,37 62.9019675,37 C60.2871551,37 57.2858255,34.4511314 57.1979277,31.4153536 L57.1979277,17.6024168 Z M61.9688544,30.4918848 C61.9688544,32.0361332 63.9299637,32.027248 63.9299637,30.4918848 L63.9299637,18.3689136 C63.9299637,16.707973 61.9688544,16.7026419 61.9688544,18.3689136 L61.9688544,30.4918848 Z M94.6563379,30.9189669 L91.5036611,30.9189669 L91.5036611,34.7692217 C92.7301548,36.5510011 94.0265011,36.9070015 95.566749,36.8365123 C97.1081611,36.7648383 99,34.8639972 99,33.2000948 L99,29.9919441 C99,27.9963274 97.8788672,27.4258974 96.828751,26.7837934 C95.7768886,26.1416894 94.6563379,26.4272006 94.6563379,24.7869921 C94.6563379,23.5039687 96.19775,22.9335387 96.19775,25.7146073 L99,25.7146073 L99,22.1848122 C96.6872997,19.9753584 95.3915356,20.2247364 94.3059111,20.439166 C92.6201371,20.7714726 91.5036611,22.7913754 91.5036611,25.5712593 C91.5036611,27.4087193 92.2289631,28.2853927 92.7656632,28.922758 C93.1853604,29.421514 94.0433821,29.9629191 94.6563379,30.1755716 C95.3566093,30.4196185 96.19775,30.3953323 96.19775,31.8151878 C96.19775,34.0317498 94.6563379,33.7172136 94.6563379,32.843502 L94.6563379,30.9189669 Z M91.7842354,21.0273664 L92.0409434,21.4135766 L92.7877832,20.6530032 C93.6289238,19.7976543 93.2598697,18.7379457 92.2272167,18.7521621 C91.363374,18.764009 91.3395077,19.9943135 91.9408214,20.1720175 C92.2912482,20.2750859 92.2691283,20.4243573 92.1160348,20.6174624 C91.9856435,20.7833195 91.7842354,21.0273664 91.7842354,21.0273664 Z M12.0260538,31.8294041 L14.0185967,17.5159341 L18.9222431,16.1849307 L20.5434035,31.8294041 C20.5434035,32.6598744 20.9392344,32.8671958 20.9392344,32.8671958 L20.9718323,32.8671958 L20.9718323,36.2891837 L16.6747385,36.2891837 L16.6747385,32.8671958 C16.6747385,32.8671958 17.0536884,32.6598744 17.0536884,31.8294041 L17.0536884,31.0013032 L15.438349,31.0013032 L15.438349,31.8294041 C15.438349,32.6598744 15.8335978,32.8671958 15.8335978,32.8671958 L15.8335978,36.2891837 L11.6302229,36.2891837 L11.6302229,32.8671958 C11.630805,32.8671958 12.0260538,32.6598744 12.0260538,31.8294041 Z M15.5920246,28.5116692 L16.9908211,28.5116692 L16.331297,21.7020495 L15.5920246,28.5116692 Z M56.0540928,17.8476484 C56.0540928,16.7056036 56.5977782,16.4200924 56.5977782,16.4200924 L56.5977782,12.1931051 L50.746466,12.0503495 L50.746466,16.0427674 C50.746466,16.0427674 51.2901514,16.3276863 51.2901514,17.4703234 L51.2901514,29.0655136 C51.2901514,31.7263357 49.7958897,31.7263357 47.8336162,30.4907002 L47.8336162,35.5292027 C50.1690186,37.0491648 56.0546749,38.8564151 56.0546749,30.8715792 L56.0546749,17.8476484 L56.0540928,17.8476484 Z M80.7155226,32.8671958 C80.7155226,32.8671958 80.2061813,32.5816846 80.2061813,31.4396399 L80.170673,20.7495557 C80.170673,19.607511 80.8197192,19.1798365 80.8197192,19.1798365 L80.8197192,15.4012558 L75.4247768,14.0820993 L75.4247768,18.4305177 C75.4247768,18.4305177 75.8636834,18.7160289 75.8636834,19.8580737 L75.8636834,23.634285 L74.0050245,23.634285 L74.0050245,19.8580737 C74.0050245,18.7160289 74.6540707,18.2883545 74.6540707,18.2883545 L74.6540707,13.8682621 L69.3650713,12.9418315 L69.3650713,17.8612724 C69.3650713,17.8612724 70.0141176,18.2889468 70.0141176,19.4309916 L70.0141176,31.4396399 C70.0141176,32.5816846 69.3650713,32.8671958 69.3650713,32.8671958 L69.3650713,36.3608577 L74.549292,36.3608577 L74.549292,32.8671958 C74.549292,32.8671958 74.0044424,32.5816846 74.0044424,31.4396399 L74.0044424,27.5212653 L75.8631013,27.5212653 L75.8631013,31.4396399 C75.8631013,32.5816846 75.3194159,32.8671958 75.3194159,32.8671958 L75.3194159,36.3608577 L80.7143584,36.3608577 L80.7143584,32.8671958 L80.7155226,32.8671958 Z M81.6259337,32.8671958 C81.6259337,32.8671958 82.2749799,32.773605 82.1341107,32.059827 L82.1341107,20.9337756 C82.1341107,19.7911385 81.6259337,19.334439 81.6259337,19.334439 L81.6259337,15.4486435 L85.8642349,16.5652174 L87.6501308,26.3916598 L87.7036844,22.9649331 C87.7036844,21.8228883 87.1955074,21.3661888 87.1955074,21.3661888 L87.1955074,17.0882597 L91.1020092,18.442957 L91.1020092,21.8649449 C91.1020092,21.8649449 90.4529629,22.2932117 90.4529629,23.4358488 L90.4529629,36.3365715 L86.9498594,36.3365715 L84.9520775,28.5667575 L84.9520775,31.7980097 C84.9520775,32.9400545 85.3385947,32.8671958 85.3385947,32.8671958 L85.3385947,36.3365715 L81.6253516,36.3365715 L81.6253516,32.8671958 L81.6259337,32.8671958 Z M26.2742201,18.1562611 L26.2742201,26.2003317 L26.8184876,26.2003317 C27.6340157,26.2003317 27.8610364,24.9623267 27.8610364,24.4392844 L27.8610364,19.8699206 C27.8610364,18.2522213 27.0449262,18.1562611 26.8184876,18.1562611 L26.2742201,18.1562611 Z M26.8179055,36.2891837 L21.7425383,36.2891837 L21.7425383,32.8671958 C21.7425383,32.8671958 22.2862237,32.5816846 22.2862237,31.4396399 L22.2862237,20.4219879 C22.2862237,19.636536 21.7425383,19.1839829 21.7425383,19.1839829 L21.7425383,15.7572562 C24.5069516,14.5672314 26.8219803,14.2343324 26.8219803,14.2343324 C28.5799352,13.9571141 30.0753611,14.2444023 30.9875185,15.2525767 C31.5556522,15.8804644 32.2704763,16.5486317 32.2233258,18.5827509 C32.2233258,18.5827509 32.2215795,25.1678711 32.2233258,25.311219 C32.2728047,29.1383722 30.5684034,30.1447696 28.6311603,30.3011492 L26.2742201,30.3011492 L26.2742201,31.4396399 C26.2742201,32.5816846 26.8184876,32.8671958 26.8184876,32.8671958 L26.8184876,36.2891837 L26.8179055,36.2891837 Z M32.2338037,31.228172 L34.8264962,13.0490463 L41.6924161,12.4075347 L43.9451596,31.4402322 C43.9451596,32.582277 44.488845,32.8677882 44.488845,32.8677882 L44.488845,36.2897761 L38.6031887,36.2897761 L38.6031887,32.8677882 C38.6031887,32.8677882 39.1468741,32.582277 39.1468741,31.4402322 L39.1468741,30.3017415 L36.4709407,30.3017415 L36.4709407,31.4402322 C36.4709407,32.582277 37.0146261,32.8677882 37.0146261,32.8677882 L37.0146261,36.2897761 L31.6907004,36.2897761 L31.6907004,32.8677882 C31.6907004,32.8677882 32.2343858,32.582277 32.2343858,31.4402322 L32.2338037,31.228172 Z M36.7520971,26.8791612 L38.8668819,26.8791612 L37.7684512,17.5159341 L36.7520971,26.8791612 Z" id="Shape" fill="#434A53"></path>
            <path d="M50.9997089,9.13673604 C55.6754694,9.11851041 63.4068904,9.78488499 63.3544977,10.2308434 C63.3544977,10.2308434 61.331556,11.4046878 62.6303137,11.5106243 C63.4715081,11.57954 64.3121205,11.5949179 64.3121205,11.5949179 C65.9403702,11.5949179 68.4849106,12.48 70.2575315,12.888368 L70.7418732,13 L70.6859876,12.5158817 L70.1393567,8.31430449 L72.6681794,5.82992333 L73,5.47851041 L72.4359049,5.31504929 C72.4359049,5.31504929 67.8754085,4.16512596 66.5428866,4.16968237 L66.8700501,2.53108434 C67.1029067,1.5309529 60.9950783,0 50.9997089,0 C41.0037575,0 34.7800828,1.31452355 35.0141037,2.31408543 L35.4576955,4.16968237 C34.1240094,4.16569551 29.563513,5.31504929 29.563513,5.31504929 L29,5.47851041 L29.3318206,5.82992333 L31.8612254,8.31430449 L31.3145946,12.5158817 L31.2581268,13 L31.7430507,12.888368 C33.5156715,12.4805696 36.0607941,11.5949179 37.6884617,11.5949179 C37.6884617,11.5949179 38.529074,11.57954 39.3702684,11.5106243 C40.6690261,11.4046878 38.6466666,10.2308434 38.6466666,10.2308434 C38.5931096,9.78431544 46.3245306,9.11851041 50.9997089,9.13673604 Z" id="Shape" fill="#434A53"></path>
            <path d="M39.4464082,7.94606324 L39.4287343,7.74581525 L39.9612315,7.68939864 L39.536488,2.94482331 L39.0176739,2.99938004 L39,2.79913205 L42.1841505,2.50960942 C43.6522235,2.35461872 43.968073,3.09733416 44.031927,3.81029138 C44.0969213,4.53812771 43.9236032,5.39181649 42.4555302,5.54742715 L41.5199544,5.64600124 L41.6904219,7.55424675 L42.3255416,7.48729076 L42.3437856,7.68753875 L39.4464082,7.94606324 Z M41.5022805,5.44451333 L41.7616876,5.41723497 C42.0621437,5.3849969 42.5302166,4.95040298 42.4766249,4.35647861 L42.3814139,3.58524489 C42.3506271,3.24364538 41.9082098,2.74023559 41.4851767,2.78549287 L41.2662486,2.80843149 L41.5022805,5.44451333 Z M44.8563284,7.44699318 L44.8460661,7.24550527 L45.3665906,7.21388717 L45.1214367,2.45319281 L44.6009122,2.48481091 L44.5906499,2.283323 L47.2793615,2.09113453 L47.2896237,2.29200248 L46.7690992,2.32362058 L47.013683,7.0849349 L47.5342075,7.0533168 L47.5450399,7.25418475 L44.8563284,7.44699318 Z M52.2423033,2 L52.2434436,2.23124613 L50.0581528,6.98636082 L50.4561003,6.983261 C51.1009122,6.9783013 51.7981756,6.45071296 52.036488,5.19528828 L52.2633979,5.19342839 L52.2212087,7.17110973 L48.2867731,7.22008679 L48.2850627,6.93614383 L50.4372862,2.23310601 L50.2035348,2.2349659 C49.3529076,2.24116553 48.7810718,2.99938004 48.5741163,3.866708 L48.3751425,3.86794792 L48.4458381,2.04649721 L52.2423033,2 Z M57.4903079,2.20892746 L57.4783352,2.44017359 L55.0330673,7.0433974 L55.4304447,7.06633602 C56.0741163,7.10353379 56.7987457,6.62306262 57.1071836,5.38561686 L57.3329532,5.39863608 L57.1812999,7.37011779 L53.2497149,7.19094854 L53.2639681,6.90762554 L55.672748,2.35399876 L55.4401368,2.34097954 C54.5906499,2.29138252 53.9783352,3.01115933 53.722919,3.86298822 L53.5233751,3.85182889 L53.6949829,2.03781773 L57.4903079,2.20892746 Z M57.836374,7.47799132 L57.8540479,7.27774334 L58.0108324,7.29448233 C58.2291904,7.31866088 58.4338655,6.89894606 58.5729761,6.59144451 L60.3700114,2.56044637 L61.4002281,2.62802232 L62.6248575,7.75821451 L63,7.79913205 L62.9811859,8 L60.4287343,7.75511469 L60.4475485,7.55486671 L60.9384265,7.60880347 L60.5952109,6.07067576 L59.2166477,5.91878487 L58.8694413,6.65344079 C58.6254276,7.18846869 58.8836944,7.38251705 59.0610034,7.4017359 L59.2457241,7.42219467 L59.2269099,7.62244265 L57.836374,7.47799132 Z M60.0946408,3.87848729 L59.2987457,5.69559826 L60.5478905,5.83384997 L60.0946408,3.87848729 Z" id="Shape" fill="#FFFFFF"></path>
        </g>
    </g>
</svg>