<?xml version="1.0" encoding="UTF-8" standalone="no"?>
<svg width="48px" height="48px" viewBox="0 0 48 48" version="1.1" xmlns="http://www.w3.org/2000/svg" xmlns:xlink="http://www.w3.org/1999/xlink">
    <!-- Generator: Sketch 41.2 (35397) - http://www.bohemiancoding.com/sketch -->
    <title>building</title>
    <desc>Created with Sketch.</desc>
    <defs></defs>
    <g id="Page-1" stroke="none" stroke-width="1" fill="none" fill-rule="evenodd" stroke-linecap="round">
        <g id="building" stroke="#6772E5">
            <g transform="translate(4.000000, 4.000000)">
                <g id="floor-1" transform="translate(4.000000, 24.000000)">
                    <path d="M0,1.5 L2,1.5" id="Line"></path>
                    <path d="M4,1.5 L6,1.5" id="Line"></path>
                    <path d="M8,1.5 L10,1.5" id="Line"></path>
                    <path d="M12,1.5 L14,1.5" id="Line"></path>
                </g>
                <g id="floor-2" transform="translate(4.000000, 20.000000)">
                    <path d="M0,1.5 L2,1.5" id="Line"></path>
                    <path d="M4,1.5 L6,1.5" id="Line"></path>
                    <path d="M8,1.5 L10,1.5" id="Line"></path>
                    <path d="M12,1.5 L14,1.5" id="Line"></path>
                </g>
                <g id="floor-3" transform="translate(4.000000, 16.000000)">
                    <path d="M0,1.5 L2,1.5" id="Line"></path>
                    <path d="M4,1.5 L6,1.5" id="Line"></path>
                    <path d="M8,1.5 L10,1.5" id="Line"></path>
                    <path d="M12,1.5 L14,1.5" id="Line"></path>
                </g>
                <g id="floor-4" transform="translate(4.000000, 12.000000)">
                    <path d="M0,1.5 L2,1.5" id="Line"></path>
                    <path d="M4,1.5 L6,1.5" id="Line"></path>
                    <path d="M8,1.5 L10,1.5" id="Line"></path>
                    <path d="M12,1.5 L14,1.5" id="Line"></path>
                </g>
                <g id="floor-4" transform="translate(4.000000, 0.000000)">
                    <path d="M0,9.5 L2,9.5" id="Line"></path>
                    <path d="M4,9.5 L6,9.5" id="Line"></path>
                    <path d="M7,4.5 L7,0.5" id="Line"></path>
                    <path d="M8,9.5 L10,9.5" id="Line"></path>
                    <path d="M12,9.5 L14,9.5" id="Line"></path>
                </g>
                <rect id="Rectangle-6" stroke-width="2" stroke-linejoin="round" x="0" y="5" width="22" height="32" rx="4"></rect>
                <rect id="Rectangle-6" stroke-width="2" stroke-linejoin="round" fill="#6772E5" x="10" y="31" width="2" height="6"></rect>
            </g>
            <g id="garage" transform="translate(26.000000, 21.000000)">
                <g id="floor-1" transform="translate(4.000000, 7.000000)">
                    <path d="M0,1.5 L2,1.5" id="Line"></path>
                    <path d="M4,1.5 L6,1.5" id="Line"></path>
                    <path d="M8,1.5 L10,1.5" id="Line"></path>
                </g>
                <g id="floor-2" transform="translate(4.000000, 3.000000)">
                    <path d="M0,1.5 L2,1.5" id="Line"></path>
                    <path d="M4,1.5 L6,1.5" id="Line"></path>
                    <path d="M8,1.5 L10,1.5" id="Line"></path>
                </g>
                <rect id="Rectangle-6" stroke-width="2" stroke-linejoin="round" x="0" y="0" width="18" height="20" rx="4"></rect>
                <rect id="Rectangle-6" stroke-width="2" stroke-linejoin="round" fill="#3A3838" x="8" y="14" width="2" height="6"></rect>
            </g>
        </g>
    </g>
</svg>